<?xml version="1.0" encoding="UTF-8"?>
<svg id="Calque_1" data-name="Calque 1" xmlns="http://www.w3.org/2000/svg" viewBox="0 0 16 16">
  <defs>
    <style>
      .cls-1 {
        fill: #55433c;
      }

      .cls-2 {
        fill: #fff8f0;
      }
    </style>
  </defs>
  <circle class="cls-2" cx="8" cy="8" r="8"/>
  <g>
    <ellipse class="cls-1" cx="4" cy="5.6" rx="1.66" ry="2.45" transform="translate(-2.66 3.88) rotate(-40)"/>
    <ellipse class="cls-1" cx="3.26" cy="10.03" rx="1.51" ry="2.22" transform="translate(-6.14 5.24) rotate(-45)"/>
    <path class="cls-1" d="M11.78,7.71c-1.34-.25-2.37-2.21-4.55-.95s-.99,3.13-1.45,4.41c-.5,1.39-.8,1.77-.2,2.8.79,1.37,2.01,1.17,3.06.56.75-.44,1.34-1.17,2.14-1.62s1.72-.61,2.48-1.04c1.06-.6,1.84-1.56,1.05-2.93-.6-1.04-1.07-.96-2.53-1.22Z"/>
    <ellipse class="cls-1" cx="7.86" cy="3.37" rx="1.66" ry="2.45" transform="translate(-.68 2.89) rotate(-20)"/>
    <ellipse class="cls-1" cx="12.07" cy="4.95" rx="1.51" ry="2.22" transform="translate(-.87 3.29) rotate(-15)"/>
  </g>
</svg>